<svg id="WB" xmlns="http://www.w3.org/2000/svg" viewBox="0 0 855.95 459.03"><path d="M407.63,12.35q1.25-5,8.25-7.75a53.36,53.36,0,0,1,16.63-3.25,100.23,100.23,0,0,1,20.25,1.12A73.46,73.46,0,0,1,472.13,8.1,38.82,38.82,0,0,1,486,18.22a16.73,16.73,0,0,1,3.62,14.38q-1,6-4.62,23.25T476,98q-5.38,24.89-12.13,55.5T450,216.85q-7.12,32.76-14.5,65.87t-14,63q-6.63,29.88-12.25,54.75t-9.38,40.88q-1.25,5.76-9.12,9.75a69.39,69.39,0,0,1-19.13,6,138.16,138.16,0,0,1-24.12,2,126.83,126.83,0,0,1-24.38-2.25,73,73,0,0,1-19.87-6.63q-8.38-4.37-10.63-11.37-3.25-10-8.37-29t-11.38-43.63q-6.25-24.62-13.25-53.37t-14-58.25q-7.24,29.76-14.25,58.62t-13.25,53.63q-6.25,24.75-11.37,43.87t-8.38,29.13q-2.25,6.75-10.62,11.25a70.53,70.53,0,0,1-19.88,6.75,126.8,126.8,0,0,1-24.37,2.25,138.2,138.2,0,0,1-24.13-2,69.31,69.31,0,0,1-19.12-6q-7.87-4-9.13-9.75-3.75-16-9.37-40.88T69.51,346.72q-6.63-29.87-14-63T41,217.85q-7.12-32.74-13.88-63.38T15,99Q9.63,74.1,6,56.85T1.38,33.6A16.7,16.7,0,0,1,5,19.22,38.69,38.69,0,0,1,18.88,9.1,73.31,73.31,0,0,1,38.26,3.47,100.16,100.16,0,0,1,58.51,2.35,53.35,53.35,0,0,1,75.13,5.6q7,2.76,8.25,7.75l65,291.75,57.5-255c.5-2.66,2.75-4.88,6.75-6.63a57.29,57.29,0,0,1,14.5-3.87,117.2,117.2,0,0,1,18.38-1.13,140.31,140.31,0,0,1,18.37,1.38,52.2,52.2,0,0,1,14.38,4q5.87,2.76,6.87,6.5l57.5,253.75Z" transform="translate(-1.04 -1.07)" style="fill:#9b9ba1"/><path d="M635,459.85q-23-.51-38.87-2.38t-25.88-6.25q-10-4.37-14.37-11.75t-4.13-18.87l-.25-315.75q.25-25,1.75-43.25T559,31.22q4.24-12.12,12.13-18.5t20.62-7.87Q601.48,3.6,611.23,3T631,1.85a543.26,543.26,0,0,1,55.75-.13,319.7,319.7,0,0,1,51.5,6.63,201.54,201.54,0,0,1,44.38,14.87A117,117,0,0,1,817.23,48.1a102.56,102.56,0,0,1,22.13,36.5q7.62,21.25,6.87,49.75-1,31.26-13.75,53.37a117.82,117.82,0,0,1-33,36.88,194.45,194.45,0,0,1,22.38,17.25,112.63,112.63,0,0,1,18.5,21.25,102.25,102.25,0,0,1,12.37,25.75,94.39,94.39,0,0,1,4.25,30.5q-.5,27-8.5,47.37a120.74,120.74,0,0,1-21,35.38,122.31,122.31,0,0,1-30,25.12A196.34,196.34,0,0,1,762,443.85a238.2,238.2,0,0,1-37.5,9.87q-19,3.38-36,4.75t-31,1.5Q643.48,460.11,635,459.85Zm2.75-273.75a176.69,176.69,0,0,0,23.5,1.12,271.6,271.6,0,0,0,28-1.75,192.51,192.51,0,0,0,28.5-5.37A100.34,100.34,0,0,0,742.61,170a53.72,53.72,0,0,0,17.25-15.5q6.38-9.12,5.62-21.87a41.57,41.57,0,0,0-7-21.38,55.67,55.67,0,0,0-16.25-15.5A88.58,88.58,0,0,0,719.48,85.6a169.37,169.37,0,0,0-26.75-5.5,187.35,187.35,0,0,0-28.12-1.38,247.39,247.39,0,0,0-26.88,2.13Zm0,191.5A139.7,139.7,0,0,0,655.61,379a235.68,235.68,0,0,0,27-.87,213.72,213.72,0,0,0,30.5-4.88,106.16,106.16,0,0,0,28.12-10.62,57.42,57.42,0,0,0,19.88-17.88q7.36-10.87,6.12-27.12a43.2,43.2,0,0,0-7.75-22.38,56.65,56.65,0,0,0-17.25-15.62,92.74,92.74,0,0,0-23.75-9.75,164.43,164.43,0,0,0-27.25-4.75,195.22,195.22,0,0,0-27.87-.5q-13.87.75-25.63,2.5Z" transform="translate(-1.04 -1.07)" style="fill:#9b9ba1"/></svg>